<svg width="100" height="45" viewBox="0 0 80 25" fill="none" xmlns="http://www.w3.org/2000/svg">
    <g clip-path="url(#clip0)">
        <path
            d="M80 15.5275C80 14.5617 79.4796 13.9673 78.513 13.9673C77.0632 13.9673 75.948 15.8618 75.2045 16.8276L75.1673 16.7905L75.948 14.0416C75.0558 14.0416 74.1636 14.153 73.2714 14.153H70.5576L70.3717 14.896H72.2677L70.0372 24.5914H73.4201L74.461 20.3195C74.7584 19.0565 74.9814 18.5364 75.6134 17.4591C75.7993 17.162 76.5056 16.0475 76.9517 16.0475C77.2119 16.0475 77.3234 16.3076 77.5465 16.6048C77.7695 16.8648 78.0297 17.162 78.5874 17.162C79.4796 17.0877 80 16.4562 80 15.5275ZM68.513 16.7533C68.513 14.7103 66.2825 13.9673 64.6468 13.9673C61.2639 13.9673 57.3606 17.2363 57.3606 20.7652C57.3606 23.4027 59.4796 24.9257 61.9331 24.9257C64.5725 24.9257 66.6915 23.8113 68.1784 21.5825L67.7695 21.211C66.4684 22.9941 64.6468 24.1828 62.3792 24.1828C61.5242 24.1828 60.9665 23.8856 60.9665 22.9569C60.9665 22.0654 61.2639 21.1367 61.4126 20.2452H63.5316C64.3123 20.2452 65.1301 20.0223 65.8364 19.7994C67.3606 19.3165 68.513 18.425 68.513 16.7533ZM65.7993 16.1961C65.7993 18.685 63.8662 19.5022 63.1227 19.5022H61.5985L62.4535 16.5676C62.8996 15.0817 63.5688 14.7103 64.3494 14.7103C65.4647 14.7103 65.7993 15.1932 65.7993 16.1961ZM55.948 15.9733C55.948 14.4874 54.0149 13.9673 52.8625 13.9673C50.1859 13.9673 48.6617 15.7875 48.6617 17.422C48.6617 17.8678 48.5874 18.5735 49.5167 19.2793L52.5279 21.5825C52.974 21.9168 53.3829 22.3626 53.3829 22.9569C53.3829 24.0342 52.0818 24.1828 51.2639 24.1828C50.855 24.1828 49.8141 24.1456 49.8141 23.6627C49.8141 23.3655 50.1487 22.8083 50.1487 22.3626C50.1487 21.5825 49.5539 20.951 48.8104 20.951C47.9182 20.951 47.2491 21.6196 47.2491 22.5111C47.2491 24.4056 49.6654 24.8886 51.1152 24.8886C53.4201 24.8886 55.5762 23.5884 55.5762 21.0624C55.5762 19.8366 54.9071 19.0565 53.9777 18.3878L51.3383 16.4562C51.0037 16.2333 50.8178 16.0475 50.8178 15.6018C50.8178 14.8217 51.8587 14.6731 52.4907 14.6731C52.7138 14.6731 53.6059 14.7845 53.5316 15.0817C53.4944 15.3046 53.3829 15.9361 53.3829 16.1218C53.5316 16.9019 54.0149 17.2363 54.7955 17.2363C55.5019 17.2734 55.948 16.6048 55.948 15.9733ZM46.0595 15.9733C46.0595 14.4874 44.1264 13.9673 42.974 13.9673C40.2974 13.9673 38.7732 15.7875 38.7732 17.422C38.7732 17.8678 38.6989 18.5735 39.6283 19.2793L42.6394 21.5825C43.0855 21.9168 43.4944 22.3626 43.4944 22.9569C43.4944 24.0342 42.1933 24.1828 41.3755 24.1828C40.9665 24.1828 39.9257 24.1456 39.9257 23.6627C39.9257 23.3655 40.2602 22.8083 40.2602 22.3626C40.2602 21.5825 39.6654 20.951 38.9219 20.951C38.0297 20.951 37.3606 21.6196 37.3606 22.5111C37.3606 24.4056 39.777 24.8886 41.2268 24.8886C43.5316 24.8886 45.6877 23.5884 45.6877 21.0624C45.6877 19.8366 45.0186 19.0565 44.0892 18.3878L41.4498 16.4562C41.1152 16.2333 40.9294 16.0475 40.9294 15.6018C40.9294 14.8217 41.9703 14.6731 42.6022 14.6731C42.8253 14.6731 43.7175 14.7845 43.6431 15.0817C43.6059 15.3046 43.4944 15.9361 43.4944 16.1218C43.6431 16.9019 44.1264 17.2363 44.9071 17.2363C45.5762 17.2734 46.0595 16.6048 46.0595 15.9733ZM36.3569 21.3967L35.7993 21.211C35.316 22.1025 34.4981 23.5141 33.7547 23.5141C33.6059 23.5141 33.197 23.4027 33.4201 22.5854L35.6506 14.1159H32.7138L32.1561 15.9361C31.6357 14.7103 30.7435 13.9673 29.4052 13.9673C28.8848 13.9673 28.3643 14.1159 27.8439 14.3388C25.2788 15.3789 23.3457 18.0535 23.3457 20.8767C23.3457 22.9941 24.6468 24.9257 26.9145 24.9257C28.6617 24.9257 29.7398 23.7741 30.5948 22.3997C30.8178 23.5141 31.4126 24.6285 32.6766 24.6285C34.5353 24.6285 35.6134 22.9198 36.3569 21.3967ZM31.6357 16.8276C31.6357 18.7593 30.1115 24.1828 27.6952 24.1828C27.026 24.1828 26.6543 23.737 26.6543 23.0683C26.6543 22.5111 27.3234 19.6137 27.5093 18.8707C28.513 14.9331 29.5911 14.6731 30.0372 14.6731C31.1524 14.7103 31.6357 15.8618 31.6357 16.8276ZM23.4201 9.24963C23.4201 5.16345 22.7509 2.41456 21.3755 1.04012C20.6691 0.371471 19.777 0 18.7361 0C17.2862 0 16.1338 1.11441 16.1338 2.526C16.1338 3.75186 17.1004 5.05201 18.6989 5.05201C19.3309 5.05201 19.8141 4.90342 20.223 4.79198C20.4833 4.71768 20.7063 4.64339 20.855 4.64339C21.5985 4.64339 21.6729 5.49777 21.6729 8.9153C21.6729 14.5988 18.8476 22.9941 14.9814 22.9941C14.5725 22.9941 14.2379 22.8455 14.0149 22.5483C13.3829 21.8053 13.3829 20.0594 14.0149 17.2363L15.7993 9.5468L11.6729 9.95542L11.0409 12.63C9.8513 18.3878 7.13755 23.0312 5.05576 23.0312C4.60967 23.0312 4.27509 22.8826 4.05204 22.5854C3.30855 21.6196 3.829 19.2793 4.31227 17.2363V17.1991L6.4684 8.09807C6.4684 8.09807 6.7658 7.05795 6.20818 6.35215C5.83643 5.83209 5.09294 5.57206 4.08922 5.57206C3.94052 5.57206 3.829 5.57206 3.6803 5.57206C2.34201 5.64636 1.30112 5.83209 0.892193 5.94354L0.780669 6.42645C1.07807 6.46359 1.63569 6.57504 1.97026 7.0208C2.34201 7.46657 2.41636 8.13521 2.23048 8.9896C2.23048 9.10104 0 17.682 0 20.5052C0 23.6256 2.00744 25.0371 4.01487 25.0371C6.05948 25.0371 7.95539 23.5513 9.51673 20.6909L9.77695 20.208L9.81413 20.7281C10 23.477 11.5985 25 14.3866 25C20.0372 25 23.4201 17.0134 23.4201 9.24963Z"
            fill="black"></path>
    </g>
    <defs>
        <clipPath id="clip0">
            <rect width="80" height="25" fill="white"></rect>
        </clipPath>
    </defs>
</svg>